<svg width="53" height="45" viewBox="0 0 53 45" fill="none" xmlns="http://www.w3.org/2000/svg">
<g clip-path="url(#clip0_51_1134)">
<path d="M27.9501 28.3054C28.8553 27.589 29.0973 26.2341 28.5213 25.2789C29.0973 26.2439 28.7682 27.6036 27.8533 28.1689C26.9674 28.7684 25.6895 28.5296 25.1086 27.7206C24.8085 27.3258 24.6488 26.8336 24.6681 26.3413C24.6778 25.8394 24.9102 25.4202 25.1909 24.9183C25.6798 24.002 26.13 23.0663 26.5947 22.1355C26.556 22.077 26.5221 22.0185 26.4834 21.9649H26.6818C26.6528 22.0234 26.6238 22.0819 26.5947 22.1355C27.2579 23.1687 27.9114 24.2116 28.5261 25.274C27.8775 24.1531 27.2724 23.003 26.6818 21.8479C26.6722 21.8333 26.6576 21.8138 26.6431 21.8041C26.5899 21.77 26.5221 21.7895 26.4931 21.8431V21.8528C25.9122 22.7934 25.3216 23.7243 24.7698 24.6795C24.5035 25.123 24.155 25.6932 24.1599 26.3267C24.1405 26.9457 24.3632 27.5549 24.7601 28.0178C25.5733 28.9682 27.0691 29.0413 27.9549 28.3103" fill="white"/>
<path d="M24.4069 29.8499C25.3605 30.6053 26.6675 30.7759 27.839 30.464C29.0104 30.1131 29.9882 29.192 30.4433 28.0467C30.8789 26.8917 30.7676 25.5515 30.1577 24.4939C29.8672 23.9919 29.5574 23.5143 29.2621 23.0221C29.1072 22.7736 28.9717 22.5396 28.7974 22.2813C28.6232 22.0376 28.4392 21.8183 28.2456 21.599C27.8632 21.1653 27.4662 20.7462 27.0161 20.3709C26.7885 20.1906 26.5707 19.9908 26.2561 19.9079C26.1835 19.8835 26.0673 19.8982 25.9995 19.9518C25.9366 20.0054 25.893 20.0639 25.8446 20.1223L25.5929 20.4781C25.2637 20.9508 24.9927 21.4626 24.7264 21.9694L23.9083 23.4851C23.6421 23.9968 23.3952 24.5134 23.1677 25.0397C22.9305 25.5807 22.9257 26.1753 22.9451 26.7504C22.9983 27.9005 23.463 29.0945 24.4166 29.8451M23.221 25.069C23.4388 24.5378 23.6712 24.0114 23.9277 23.4997L24.7797 22.0035C25.0604 21.5016 25.3363 20.9996 25.6752 20.5415C25.7575 20.4245 25.8446 20.3124 25.9366 20.2052C25.9802 20.1516 26.0334 20.098 26.077 20.0639C26.1205 20.0444 26.1641 20.0346 26.227 20.0541C26.4642 20.1272 26.6869 20.3319 26.8902 20.522C27.3017 20.907 27.6695 21.3456 28.0181 21.794C28.386 22.2375 28.6474 22.7053 28.9184 23.2268L29.7317 24.7425C30.2496 25.6928 30.3126 26.8527 29.9156 27.8469C29.538 28.846 28.7151 29.6696 27.6986 30.001C26.6917 30.3178 25.4864 30.2544 24.586 29.616C23.6808 28.9873 23.1435 27.8859 23.0419 26.7552C23.0128 26.1948 23.0031 25.5953 23.221 25.0739" fill="white"/>
<path d="M23.8016 31.5363C25.1957 32.433 26.9916 32.6036 28.5697 32.0724C30.1671 31.5412 31.4257 30.1961 32.0066 28.6219C32.5923 27.0283 32.3793 25.2007 31.5515 23.7532L30.3172 21.7015C30.1042 21.3603 29.9154 21.0241 29.6879 20.6732C29.4507 20.3271 29.1748 20.025 28.8892 19.7374C28.3131 19.1672 27.6887 18.6458 26.9771 18.251C26.6189 18.0658 26.2316 17.8806 25.7863 17.9147C25.5636 17.9391 25.3603 18.0756 25.2296 18.2266C25.0892 18.3777 24.9634 18.5288 24.8375 18.6896C24.3293 19.3183 23.9711 20.0445 23.5935 20.7414L22.4511 22.8468C22.0784 23.5583 21.7685 24.2942 21.5023 25.0545C21.2651 25.8342 21.2796 26.6579 21.3765 27.4571C21.5798 29.0459 22.393 30.6347 23.8016 31.5314M21.5943 25.0935C21.8412 24.3381 22.1413 23.5924 22.4995 22.8857L23.6806 20.7999C24.0775 20.103 24.4406 19.3914 24.9489 18.7822C25.2006 18.4996 25.4523 18.1097 25.8057 18.0999C26.1687 18.0853 26.5318 18.2656 26.8609 18.4557C27.5289 18.8602 28.1147 19.3963 28.6471 19.9714C28.9085 20.2589 29.1651 20.5659 29.3636 20.8876C29.5572 21.2141 29.746 21.5796 29.9396 21.9257L31.0917 24.0262C31.8178 25.3615 31.9872 26.999 31.4354 28.4221C30.9319 29.8403 29.8283 31.0782 28.3906 31.5753C26.9868 32.0967 25.3022 32.0383 23.9759 31.2536C22.6302 30.4836 21.7589 29.002 21.512 27.4474C21.4007 26.6725 21.3813 25.8489 21.5943 25.0935Z" fill="white"/>
<path d="M19.8468 25.0841C19.6096 26.1027 19.6386 27.1554 19.8226 28.1739C20.1711 30.2111 21.3619 32.1605 23.2062 33.218C24.1163 33.7493 25.157 34.0514 26.2026 34.1196C27.2482 34.2122 28.3276 34.0612 29.32 33.6761C31.3289 32.9305 32.9069 31.2053 33.5895 29.173C34.3059 27.1359 34.0009 24.8161 32.936 22.9787L31.3579 20.3373C31.0868 19.8938 30.8448 19.46 30.5544 19.0117C30.2542 18.5682 29.8912 18.1832 29.5136 17.8274C28.7439 17.1256 27.8871 16.5115 26.9045 16.1314C26.4156 15.9511 25.8783 15.8195 25.341 15.9316C24.7746 16.0583 24.4406 16.5213 24.1017 16.8917C23.4144 17.6763 22.9642 18.6218 22.4753 19.5136L21.0037 22.2136C20.5245 23.1298 20.1421 24.085 19.8565 25.0792M22.5818 19.5819C23.09 18.69 23.5451 17.7689 24.2276 17.0086C24.5616 16.6382 24.915 16.224 25.3845 16.146C25.8541 16.0632 26.3527 16.1948 26.8077 16.3848C27.7226 16.7747 28.5406 17.4034 29.2522 18.1003C29.6056 18.4561 29.9347 18.8362 30.1961 19.2505C30.4527 19.6696 30.6947 20.1375 30.9464 20.5809L32.4374 23.2711C33.4007 24.9915 33.6475 27.1066 32.965 28.9586C32.3599 30.8203 30.9416 32.4237 29.107 33.1303C27.3063 33.8711 25.1328 33.8126 23.3853 32.8818C21.6233 31.9509 20.3841 30.1282 19.992 28.1349C19.7984 27.1456 19.7597 26.0978 19.9726 25.1085C20.2437 24.1289 20.6116 23.159 21.0715 22.2526L22.5818 19.5721V19.5819Z" fill="white"/>
<path d="M21.3472 18.2804L19.5416 21.5797C18.9511 22.6958 18.5009 23.8801 18.1959 25.1082C17.9539 26.3607 18.012 27.6473 18.2734 28.8852C18.7768 31.3658 20.3403 33.671 22.6106 34.8943C23.7337 35.5083 25.0116 35.8495 26.2895 35.8933C26.9285 35.9616 27.5723 35.8543 28.2113 35.8056C28.8406 35.6643 29.4795 35.5424 30.0701 35.2744C31.2657 34.7822 32.3501 34.0219 33.2359 33.0667C34.1121 32.1017 34.7655 30.9467 35.1722 29.7137C35.5594 28.4709 35.7192 27.1453 35.5546 25.8538C35.3948 24.5575 34.9398 23.3147 34.3057 22.1938L32.3888 18.9626C32.0596 18.4217 31.7692 17.8905 31.4061 17.3446C31.0382 16.8037 30.5929 16.3358 30.1185 15.9118C29.1552 15.0736 28.0515 14.3913 26.8172 14.0306C26.2024 13.8649 25.5344 13.7869 24.8954 13.9575C24.2371 14.133 23.7772 14.6447 23.3561 15.0979C22.9398 15.5755 22.5622 16.0824 22.2427 16.638L21.3424 18.2852L21.3472 18.2804ZM23.5158 15.2393C23.9321 14.7909 24.3871 14.3377 24.9632 14.2061C25.5392 14.0647 26.154 14.1525 26.73 14.3279C27.887 14.6983 28.9422 15.3952 29.8377 16.2188C30.2831 16.638 30.6897 17.0961 31.014 17.6029C31.3287 18.1098 31.6288 18.6849 31.9338 19.2258L33.7684 22.5106C34.3541 23.5779 34.7607 24.728 34.8962 25.9318C35.0366 27.1356 34.872 28.3588 34.4993 29.4992C34.1314 30.6445 33.5409 31.7216 32.7421 32.6232C31.9338 33.515 30.9366 34.2315 29.8329 34.6993C29.2859 34.9527 28.7002 35.0892 28.1145 35.2354C27.5191 35.2939 26.9188 35.4157 26.3089 35.367C25.0987 35.3572 23.8886 35.0746 22.8043 34.5239C20.6259 33.4322 19.0237 31.2635 18.4815 28.8413C18.2105 27.6376 18.1427 26.3607 18.3605 25.1472C18.6461 23.9385 19.0818 22.7494 19.653 21.648L21.4924 18.3681C22.1169 17.2764 22.6542 16.1409 23.5158 15.2393Z" fill="white"/>
<path d="M22.6254 13.29C22.1171 13.8407 21.6669 14.4401 21.2894 15.0981L20.2196 17.0475L18.0848 20.9463C17.3829 22.2671 16.865 23.6706 16.5455 25.1376C16.2986 26.624 16.3809 28.1445 16.7246 29.6017C17.3926 32.521 19.3192 35.1868 22.0203 36.5758C23.3612 37.2727 24.8714 37.6479 26.3817 37.6772C27.8823 37.7016 29.4362 37.5164 30.8303 36.8779C33.6379 35.6839 35.8694 33.1935 36.7601 30.2499C37.2055 28.783 37.3652 27.2234 37.1813 25.698C36.9828 24.1726 36.4213 22.7154 35.6758 21.3947L33.4152 17.569C33.028 16.9305 32.6843 16.297 32.2583 15.6537C31.8226 15.0201 31.295 14.4645 30.719 13.9723C29.5621 13.0025 28.2115 12.2519 26.7303 11.9205C25.9896 11.7694 25.2055 11.7402 24.46 11.9693C23.7 12.1934 23.1288 12.7539 22.6205 13.2851M24.5471 12.2617C25.2248 12.0667 25.9606 12.1106 26.6528 12.2714C28.0469 12.6174 29.3345 13.368 30.414 14.3232C30.9513 14.8057 31.4354 15.3466 31.8275 15.9412C32.2051 16.5358 32.5536 17.2181 32.9215 17.8565L35.0949 21.731C35.792 22.9981 36.2954 24.3529 36.4697 25.7809C36.6294 27.2088 36.4697 28.6563 36.0389 30.0209C35.2305 32.7695 33.1732 35.1137 30.5592 36.2541C29.2619 36.8633 27.8194 37.0875 26.3914 37.0972C24.9537 37.107 23.5161 36.7853 22.2236 36.1518C19.6242 34.8944 17.6734 32.3845 16.9715 29.5335C16.6181 28.1153 16.5261 26.6143 16.7536 25.1717C17.0489 23.734 17.5572 22.3255 18.23 21.0243L20.4035 17.1498C21.1441 15.8632 21.7686 14.5084 22.8045 13.4654C23.3079 12.9391 23.8597 12.442 24.5423 12.2617" fill="white"/>
<path d="M24.0293 9.9905C23.1676 10.2634 22.4851 10.8726 21.8848 11.4818C21.2894 12.1105 20.7618 12.8025 20.331 13.5579L19.0966 15.8046L16.6279 20.3029C15.8146 21.8235 15.2289 23.4561 14.8949 25.157C14.6432 26.8773 14.7497 28.6318 15.1805 30.3132C16.0179 33.671 18.2931 36.6975 21.4347 38.2522C24.5714 39.7873 28.3616 39.8604 31.5952 38.4763C34.8046 37.0533 37.3605 34.1828 38.3576 30.781C38.8611 29.0899 39.0208 27.2964 38.8078 25.5371C38.5706 23.7826 37.9075 22.1061 37.0507 20.5953L34.4464 16.175C33.9962 15.4391 33.6089 14.7081 33.1103 13.9624C32.6069 13.2363 31.9922 12.5978 31.3241 12.0374C29.9784 10.9311 28.3713 10.127 26.6481 9.82967C25.7864 9.68834 24.8812 9.7127 24.0389 9.9905M26.5754 10.2244C28.2019 10.5363 29.7316 11.3405 30.9901 12.4224C31.6194 12.9682 32.1809 13.5872 32.6408 14.2743C33.0813 14.9566 33.4831 15.7461 33.9091 16.4821L36.4262 20.9511C37.2394 22.418 37.8397 23.9727 38.0527 25.6297C38.2318 27.2818 38.072 28.9583 37.588 30.5422C36.6828 33.7393 34.3012 36.4489 31.3048 37.8135C28.3036 39.1586 24.6779 39.1928 21.6573 37.7892C18.6367 36.371 16.3471 33.5053 15.4758 30.2401C15.0401 28.6074 14.924 26.8773 15.1563 25.2106C15.4661 23.5487 16.0373 21.9161 16.8215 20.4199L19.329 15.9411L20.5827 13.7041C21.0038 12.978 21.5266 12.3054 22.1123 11.7011C22.7029 11.1065 23.3564 10.5558 24.1454 10.3268C24.9248 10.0831 25.7719 10.0782 26.5851 10.2293" fill="white"/>
<path d="M31.5561 10.5216C32.2774 11.1308 32.9212 11.8278 33.444 12.6026C33.9474 13.3775 34.4024 14.2694 34.8865 15.0979L37.7473 20.1615C38.667 21.8283 39.3835 23.5876 39.6158 25.4688C39.8336 27.3402 39.6642 29.2507 39.1269 31.049C38.12 34.6895 35.4238 37.7745 32.0353 39.3584C28.6275 40.9033 24.5274 40.9618 21.0761 39.4071C17.6295 37.833 15.001 34.6116 13.9699 30.9223C13.4568 29.0801 13.3116 27.1209 13.5488 25.2251C13.8683 23.3391 14.5073 21.4822 15.4028 19.7862L18.2394 14.708L19.6577 12.1738C20.137 11.3501 20.7324 10.5899 21.4004 9.91733C22.0732 9.24478 22.8332 8.65508 23.7191 8.37729C24.5129 8.11412 25.3649 8.06538 26.1975 8.1531C26.0232 8.0069 25.8586 7.85094 25.6989 7.6755C24.9873 7.66575 24.2709 7.75835 23.5884 7.99715C22.6251 8.3188 21.8312 8.97673 21.1438 9.6639C20.4564 10.3657 19.8514 11.1503 19.3625 12.0081L17.9587 14.5569L15.1559 19.6547C14.2265 21.3799 13.573 23.2416 13.2293 25.1764C12.9679 27.1307 13.1083 29.1191 13.6166 31.0198C14.6234 34.8114 17.2519 38.2034 20.8292 39.9188C24.4113 41.6051 28.6904 41.6538 32.3403 40.0602C35.9466 38.4032 38.8316 35.1525 39.9305 31.2927C40.492 29.3725 40.6517 27.3451 40.4048 25.3567C40.1434 23.3634 39.3641 21.4822 38.396 19.7716L35.448 14.7568C34.9397 13.9185 34.5041 13.09 33.9329 12.2469C33.3568 11.4281 32.6598 10.702 31.8949 10.0782C31.4399 9.71264 30.951 9.38124 30.4476 9.08882C30.0119 9.03521 29.5714 9.00597 29.1212 8.97673C29.9926 9.38124 30.8106 9.9027 31.5464 10.5168" fill="white"/>
<path d="M12.755 32.4381C12.6582 32.1651 12.5517 31.902 12.4694 31.6242C11.874 29.5676 11.6997 27.3842 11.9466 25.2642C12.2806 23.1491 12.9825 21.073 13.9894 19.182L17.16 13.5044L18.7478 10.668C19.2802 9.74686 19.9482 8.90373 20.7034 8.15808C21.4634 7.41243 22.325 6.77887 23.3125 6.44747C23.6659 6.32563 24.0338 6.24765 24.4065 6.19405C24.2661 6.05759 24.1403 5.91625 23.9854 5.78467C23.7094 5.84802 23.4335 5.926 23.1673 6.02347C22.1023 6.39386 21.1971 7.10052 20.4178 7.86567C19.6384 8.64544 18.9607 9.5178 18.4137 10.4779L16.8454 13.3289L13.7135 19.0261C12.6727 20.956 11.9515 23.0419 11.5932 25.2155C11.3561 27.1357 11.4771 29.0851 11.9079 30.9711C11.9079 30.976 11.9079 30.9809 11.9127 30.9906C12.1257 31.5998 12.421 32.0531 12.7647 32.4478" fill="white"/>
<path d="M33.9089 10.478C34.025 10.6291 34.1364 10.7753 34.2429 10.9313C34.8141 11.789 35.3223 12.793 35.8596 13.7189L39.0642 19.3771C40.0952 21.2437 40.923 23.2028 41.1795 25.3131C41.4361 27.4087 41.257 29.5482 40.6664 31.5658C39.5531 35.6499 36.547 39.1101 32.7665 40.9182C31.6192 41.464 30.4042 41.81 29.1602 42.0196C30.2348 42.1463 31.3191 42.3851 32.3502 41.9319C33.904 41.2496 34.8141 39.6608 36.4066 39.0224C36.7213 38.8956 37.0504 38.7933 37.3796 38.691C39.3207 36.8098 40.7971 34.4461 41.5281 31.8193C42.1428 29.6749 42.3171 27.4087 42.0267 25.1912C41.7459 22.9689 40.8407 20.8684 39.7709 18.9629L36.4841 13.3534C36.1743 12.8466 35.8887 12.3397 35.5934 11.8329C35.0755 11.326 34.5139 10.8728 33.9137 10.4731" fill="white"/>
<path d="M22.2334 43.4282C21.4541 43.2235 20.6844 42.9799 19.939 42.6582C20.0261 42.8239 20.1132 42.9945 20.1858 43.1699C20.2439 43.3113 20.3311 43.4428 20.4327 43.5696C20.9119 43.7596 21.396 43.9253 21.8946 44.0715C22.064 43.9643 22.1899 43.7548 22.2334 43.4331" fill="white"/>
<path d="M10.3494 25.2888C10.693 22.9495 11.4579 20.6492 12.5761 18.5633L16.0807 12.2862L17.833 9.15254C18.4236 8.13884 19.1594 7.20312 20.0017 6.38436C20.7278 5.68257 21.5507 5.09288 22.4559 4.69325C22.2768 4.58603 22.1025 4.47881 21.9234 4.37646C21.086 4.81021 20.3405 5.39991 19.6773 6.04322C18.806 6.89609 18.0509 7.86105 17.4458 8.92348L15.708 12.0718L12.2421 18.3684C11.0851 20.503 10.2961 22.8179 9.92822 25.2255C9.92822 25.2255 9.92822 25.2352 9.92822 25.2401C10.0638 25.4497 10.1945 25.6641 10.3155 25.8883C10.33 25.6885 10.33 25.4838 10.3494 25.2888Z" fill="white"/>
<path d="M11.1625 17.9541L14.9963 11.0727L16.9132 7.63681C17.557 6.52565 18.3654 5.5022 19.2948 4.62009C19.6821 4.2497 20.0935 3.9183 20.5292 3.61614C20.3598 3.51867 20.1855 3.4212 20.0161 3.32373C19.6385 3.61127 19.2706 3.91343 18.9318 4.23508C17.9685 5.16106 17.1407 6.22349 16.4727 7.38339L14.5703 10.8339L10.7704 17.7299C9.76356 19.5819 9.02778 21.5751 8.57275 23.6367C8.71313 23.7682 8.84867 23.9096 8.98421 24.0509C9.41019 21.926 10.1363 19.8548 11.1625 17.9492" fill="white"/>
<path d="M44.2486 24.5674C44.2679 24.7087 44.297 24.8549 44.3163 25.0011C44.6503 27.5402 44.4567 30.1378 43.7597 32.599C43.2611 34.4412 42.4478 36.181 41.3926 37.7552C41.7702 37.6918 42.1477 37.6236 42.5205 37.5602C42.5737 37.5505 42.6269 37.5407 42.685 37.531C43.566 36.0836 44.2583 34.5191 44.7133 32.8719C45.3861 30.4595 45.5894 27.9204 45.3232 25.4251C45.086 25.2643 44.8488 25.0937 44.6068 24.889C44.4858 24.7867 44.3696 24.6697 44.2534 24.5625" fill="white"/>
<path d="M7.66242 22.8131C8.13196 20.9124 8.82902 19.0604 9.75359 17.3401L13.9359 9.86406L16.0271 6.13092C16.729 4.92716 17.61 3.82087 18.6217 2.87053C18.6991 2.79742 18.7863 2.72919 18.8734 2.65609C18.6749 2.544 18.4716 2.42703 18.2732 2.31494C18.2441 2.34418 18.2102 2.36855 18.1812 2.39779C17.1259 3.40174 16.2207 4.55677 15.4946 5.82389L13.4277 9.58139L9.3034 17.0866C8.39336 18.7485 7.68178 20.5176 7.19287 22.3452C7.34293 22.5109 7.50267 22.662 7.66726 22.8131" fill="white"/>
<path d="M45.3042 33.1063C44.9024 34.5976 44.307 36.0255 43.5664 37.3706L44.4716 37.2049C44.5926 37.1806 44.7136 37.1562 44.8347 37.1318C45.4446 35.9378 45.9383 34.6902 46.3014 33.3987C46.9355 31.074 47.1727 28.6519 47.013 26.2492C46.6693 26.1371 46.3353 26.0055 46.0061 25.835C46.2094 28.2815 45.9722 30.7524 45.309 33.1112" fill="white"/>
<path d="M47.6514 29.1827C47.5401 30.6886 47.2738 32.1751 46.8624 33.6225C46.5526 34.7678 46.1363 35.8838 45.6377 36.956C46.0782 36.8586 46.5187 36.7513 46.9495 36.6295C47.3271 35.7474 47.6514 34.8458 47.908 33.9198C48.3291 32.3944 48.5953 30.83 48.7067 29.251C48.7599 28.3737 48.7551 27.4916 48.7018 26.6095C48.3388 26.5559 47.9903 26.4974 47.6514 26.4146C47.7095 27.3357 47.7143 28.2567 47.6514 29.1778" fill="white"/>
<path d="M8.35018 16.7307L12.8617 8.6552L15.1174 4.62478C15.7177 3.59159 16.4438 2.6315 17.2667 1.76888C17.0489 1.65192 16.8262 1.53983 16.6035 1.42773C15.8097 2.29522 15.1126 3.25044 14.5269 4.27388L12.2905 8.32867L7.83223 16.4382C7.12549 17.7249 6.53493 19.0748 6.06055 20.4638C6.18156 20.7416 6.31226 21.0096 6.45264 21.2777C6.93187 19.7035 7.56599 18.1732 8.34534 16.7307" fill="white"/>
<path d="M49.2537 26.6826C49.3795 29.1925 49.0939 31.717 48.4066 34.1343C48.1984 34.9092 47.9467 35.6694 47.6562 36.4102C48.1403 36.2494 48.605 36.0691 49.0504 35.8644C49.2149 35.3965 49.365 34.9238 49.4957 34.4413C50.1831 31.9655 50.4784 29.3777 50.3525 26.8093C50.2654 26.7996 50.1734 26.785 50.0911 26.7752C49.8007 26.7508 49.5296 26.7167 49.2537 26.6826Z" fill="white"/>
<path d="M6.94666 16.1215L11.7922 7.44176L14.2173 3.10918C14.6482 2.3684 15.1419 1.66174 15.6841 0.998937C15.4372 0.891719 15.1855 0.789375 14.9386 0.696777C14.4352 1.34008 13.9753 2.01751 13.5639 2.72904L11.1629 7.08599L6.37062 15.795C5.93496 16.5845 5.5477 17.3935 5.19434 18.222C5.32019 18.5339 5.44121 18.8458 5.55739 19.1626C5.95916 18.1197 6.42387 17.106 6.95634 16.1264" fill="white"/>
<path d="M49.9508 34.6459C49.8685 34.9481 49.7765 35.2454 49.6846 35.5426C50.2461 35.2307 50.7592 34.8603 51.2191 34.4266C51.8096 32.0922 52.0807 29.6798 52.0033 27.2722C51.6402 27.1017 51.2481 26.9847 50.856 26.9019C50.9673 29.5092 50.6575 32.136 49.9508 34.6508" fill="white"/>
<path d="M4.71959 17.1693C4.97614 16.6089 5.24722 16.0582 5.5425 15.5172L10.7172 6.238L13.3069 1.60326C13.5441 1.19388 13.8055 0.799125 14.0718 0.409241C13.7862 0.321518 13.5006 0.248415 13.2101 0.185059C12.9923 0.511586 12.7793 0.842987 12.5857 1.18413L10.0153 5.84324L4.88417 15.1517C4.66634 15.5513 4.45335 15.9558 4.25488 16.3652C4.29361 16.4286 4.33717 16.4871 4.3759 16.5504C4.50176 16.7551 4.61309 16.9598 4.71959 17.1742" fill="white"/>
<path d="M4.14376 14.9082L9.65245 5.02462L12.4019 0.0877238C12.4019 0.0877238 12.4165 0.063356 12.4261 0.0487354C12.0921 0.00974709 11.7533 0 11.4096 0L8.8731 4.586L3.41282 14.4988C3.34505 14.6255 3.28212 14.7571 3.21436 14.8838C3.40798 15.1275 3.59677 15.376 3.77587 15.6294C3.89689 15.3906 4.01791 15.147 4.1486 14.913" fill="white"/>
<path d="M8.00689 4.84389L8.58292 3.8107L10.6838 0.043457C10.5482 0.0580777 10.4079 0.0678247 10.2723 0.0921924C9.96252 0.145801 9.65271 0.248146 9.36227 0.389478L7.90039 3.03094C7.96332 3.64013 8.1037 4.2542 8.00205 4.84389" fill="white"/>
<path d="M2.74036 14.3041C2.74036 14.3041 2.74036 14.3041 2.74036 14.2993L7.32932 6.06299C6.87429 6.50648 6.26921 6.84276 5.69317 7.13517C5.66897 7.14491 5.64476 7.15466 5.62056 7.16928L2.08203 13.578C2.30954 13.8119 2.52737 14.0605 2.74036 14.309" fill="white"/>
<path d="M1.37469 12.8708C1.47151 12.9585 1.55864 13.056 1.65061 13.1486L4.74864 7.57812C4.22585 7.81693 3.69337 8.05573 3.15606 8.30428L0.890625 12.4029C1.05521 12.5686 1.21979 12.7295 1.36985 12.8708" fill="white"/>
<path d="M0.547143 12.0181L2.40596 8.6748C1.78635 8.98671 1.18127 9.31324 0.648797 9.70312C0.576187 9.75673 0.513259 9.81034 0.455171 9.86882L0.0049883 10.6778C-0.0385777 11.1359 0.208296 11.5989 0.547143 12.0229" fill="white"/>
</g>
<defs>
<clipPath id="clip0_51_1134">
<rect width="52.013" height="44.0666" fill="white"/>
</clipPath>
</defs>
</svg>
